<?xml version="1.0" encoding="UTF-8"?>
<svg xmlns="http://www.w3.org/2000/svg" xmlns:xlink="http://www.w3.org/1999/xlink" viewBox="0 0 48 48" version="1.1" width="480px" height="480px">
<g id="surface1">
<path style=" fill:#263238;" d="M 10.027344 21.199219 L 8.066406 20.800781 C 8.066406 20.503906 7.519531 19.386719 7.121094 18.566406 C 5.847656 15.949219 3.914063 11.996094 5.832031 8.929688 C 7.484375 6.285156 11.546875 5 18.25 5 L 26.046875 5 L 26.046875 7 L 18.25 7 C 12.457031 7 8.75 8.035156 7.527344 9.992188 C 6.199219 12.113281 7.773438 15.335938 8.917969 17.691406 C 9.695313 19.277344 10.207031 20.328125 10.027344 21.199219 Z "/>
<path style=" fill:#FFA726;" d="M 15.046875 26 C 15.046875 28.207031 13.253906 30 11.046875 30 C 8.835938 30 7.046875 28.207031 7.046875 26 C 7.046875 23.789063 8.835938 22 11.046875 22 C 13.253906 22 15.046875 23.789063 15.046875 26 M 43 26 C 43 23.789063 41.210938 22 39 22 C 36.789063 22 35 23.789063 35 26 C 35 28.207031 36.789063 30 39 30 C 41.210938 30 43 28.207031 43 26 "/>
<path style=" fill:#FFB74D;" d="M 39.910156 16.09375 C 38.972656 8.710938 32.683594 3 25.046875 3 C 17.878906 3 11.894531 8.03125 10.410156 14.75 C 10.175781 15.433594 10.046875 16.179688 10.046875 17 L 10.046875 29 C 10.046875 37.285156 18.796875 45 25.046875 45 C 31.296875 45 40.046875 37.285156 40.046875 29 L 40.046875 17 C 40.046875 16.691406 39.992188 16.390625 39.910156 16.09375 Z "/>
<path style=" fill:#FF9100;" d="M 20.046875 36 L 30 36 L 30 38 L 20.046875 38 Z "/>
<path style=" fill:#784719;" d="M 35 26 C 35 27.105469 34.105469 28 33 28 C 31.894531 28 31 27.105469 31 26 C 31 24.894531 31.894531 24 33 24 C 34.105469 24 35 24.894531 35 26 M 20 26 C 20 24.894531 19.105469 24 18 24 C 16.894531 24 16 24.894531 16 26 C 16 27.105469 16.894531 28 18 28 C 19.105469 28 20 27.105469 20 26 "/>
<path style=" fill:#37474F;" d="M 29.3125 16 L 8.195313 16 C 4.757813 29.5 10.132813 36 10.132813 36 L 14.046875 39 C 14.046875 39 16.75 29 25 29 C 26.105469 29 27 28.105469 27 27 C 27 25.34375 27 24 27 24 C 27 24 26.832031 22 29 22 L 29.3125 22 C 30.246094 22 31 21.246094 31 20.3125 L 31 17.6875 C 31 16.753906 30.246094 16 29.3125 16 Z M 20.964844 27.386719 L 14.152344 29.191406 C 13.109375 29.582031 12 28.8125 12 27.699219 L 12 24.59375 C 12 23.714844 12.714844 23 13.59375 23 L 20.40625 23 C 21.285156 23 22 23.714844 22 24.59375 L 22 25.894531 C 22 26.558594 21.589844 27.152344 20.964844 27.386719 Z "/>
<path style=" fill:#FF1744;" d="M 9 27.5 C 9 28.328125 8.328125 29 7.5 29 C 6.671875 29 6 28.328125 6 27.5 C 6 26.671875 6.671875 26 7.5 26 C 8.328125 26 9 26.671875 9 27.5 Z "/>
<path style=" fill:#546E7A;" d="M 17.046875 20 L 13.046875 20 C 12.492188 20 12.046875 19.550781 12.046875 19 L 12.046875 15 C 12.046875 14.449219 12.492188 14 13.046875 14 L 17.046875 14 C 17.597656 14 18.046875 14.449219 18.046875 15 L 18.046875 19 C 18.046875 19.550781 17.597656 20 17.046875 20 Z "/>
<path style=" fill:#B0BEC5;" d="M 17.046875 17 C 17.046875 18.105469 16.152344 19 15.046875 19 C 13.941406 19 13.046875 18.105469 13.046875 17 C 13.046875 15.894531 13.941406 15 15.046875 15 C 16.152344 15 17.046875 15.894531 17.046875 17 Z "/>
</g>
</svg>
