<svg xmlns="http://www.w3.org/2000/svg" height="937pt" version="1.1" viewBox="0 -312 937.5 937" width="937pt">
<g id="surface1">
<path d="M 890.625 0.25 L 46.875 0.25 C 20.992188 0.25 0 21.242188 0 47.125 L 0 265.875 C 0 291.757812 20.992188 312.75 46.875 312.75 L 890.625 312.75 C 916.507812 312.75 937.5 291.757812 937.5 265.875 L 937.5 47.125 C 937.5 21.242188 916.507812 0.25 890.625 0.25 Z M 31.25 265.875 L 31.25 47.125 C 31.25 38.492188 38.242188 31.5 46.875 31.5 L 625 31.5 L 625 281.5 L 46.875 281.5 C 38.242188 281.5 31.25 274.507812 31.25 265.875 Z M 906.25 265.875 C 906.25 274.507812 899.257812 281.5 890.625 281.5 L 656.25 281.5 L 656.25 31.5 L 890.625 31.5 C 899.257812 31.5 906.25 38.492188 906.25 47.125 Z M 906.25 265.875 " style=" stroke:none;fill-rule:nonzero;fill:rgb(0%,0%,0%);fill-opacity:1;" />
<path d="M 843.75 140.875 C 843.859375 104.9375 819.511719 73.539062 784.679688 64.699219 C 749.851562 55.84375 713.476562 71.820312 696.414062 103.453125 C 679.371094 135.074219 686.007812 174.253906 712.53125 198.492188 C 739.0625 222.730469 778.679688 225.828125 808.640625 205.988281 L 863.953125 261.296875 L 886.046875 239.203125 L 830.738281 183.890625 C 839.21875 171.148438 843.75 156.183594 843.75 140.875 Z M 765.625 187.75 C 739.742188 187.75 718.75 166.757812 718.75 140.875 C 718.75 114.992188 739.742188 94 765.625 94 C 791.507812 94 812.5 114.992188 812.5 140.875 C 812.5 166.757812 791.507812 187.75 765.625 187.75 Z M 765.625 187.75 " style=" stroke:none;fill-rule:nonzero;fill:rgb(0%,0%,0%);fill-opacity:1;" />
<path d="M 186.710938 158.96875 L 171.503906 90.609375 C 169.914062 83.460938 163.570312 78.382812 156.25 78.382812 C 148.929688 78.382812 142.585938 83.460938 140.996094 90.609375 L 125.789062 158.96875 L 109.0625 75.25 L 78.4375 81.5 L 109.6875 237.75 C 111.15625 244.96875 117.46875 250.175781 124.824219 250.25 L 125 250.25 C 132.324219 250.25 138.667969 245.164062 140.253906 238.015625 L 156.25 166.015625 L 172.246094 238.015625 C 173.832031 245.164062 180.175781 250.25 187.5 250.25 L 187.675781 250.25 C 195.03125 250.175781 201.34375 244.96875 202.8125 237.75 L 234.0625 81.5 L 203.4375 75.25 Z M 186.710938 158.96875 " style=" stroke:none;fill-rule:nonzero;fill:rgb(0%,0%,0%);fill-opacity:1;" />
<path d="M 358.585938 158.96875 L 343.378906 90.609375 C 341.789062 83.460938 335.445312 78.382812 328.125 78.382812 C 320.804688 78.382812 314.460938 83.460938 312.871094 90.609375 L 297.664062 158.96875 L 280.9375 75.25 L 250.3125 81.375 L 281.5625 237.625 C 283.03125 244.839844 289.34375 250.046875 296.699219 250.128906 L 296.875 250.128906 C 304.199219 250.125 310.542969 245.035156 312.128906 237.890625 L 328.125 166.015625 L 344.121094 238.015625 C 345.707031 245.164062 352.050781 250.25 359.375 250.25 L 359.550781 250.25 C 366.90625 250.175781 373.21875 244.96875 374.6875 237.75 L 405.9375 81.5 L 375.3125 75.25 Z M 358.585938 158.96875 " style=" stroke:none;fill-rule:nonzero;fill:rgb(0%,0%,0%);fill-opacity:1;" />
<path d="M 547.1875 75.25 L 530.460938 158.902344 L 515.253906 90.542969 C 513.664062 83.40625 507.320312 78.320312 500 78.320312 C 492.679688 78.320312 486.335938 83.40625 484.746094 90.542969 L 469.539062 158.902344 L 452.8125 75.25 L 422.1875 81.375 L 453.4375 237.625 C 454.90625 244.839844 461.21875 250.046875 468.574219 250.128906 L 468.75 250.128906 C 476.074219 250.125 482.417969 245.035156 484.003906 237.890625 L 500 166.015625 L 515.996094 238.015625 C 517.582031 245.164062 523.925781 250.25 531.25 250.25 L 531.425781 250.25 C 538.78125 250.175781 545.09375 244.96875 546.5625 237.75 L 577.8125 81.5 Z M 547.1875 75.25 " style=" stroke:none;fill-rule:nonzero;fill:rgb(0%,0%,0%);fill-opacity:1;" />
</g>
</svg>